<?xml version="1.0" encoding="UTF-8" standalone="no"?>
<svg
   xmlns:dc="http://purl.org/dc/elements/1.1/"
   xmlns:cc="http://creativecommons.org/ns#"
   xmlns:rdf="http://www.w3.org/1999/02/22-rdf-syntax-ns#"
   xmlns:svg="http://www.w3.org/2000/svg"
   xmlns="http://www.w3.org/2000/svg"
   xmlns:sodipodi="http://sodipodi.sourceforge.net/DTD/sodipodi-0.dtd"
   xmlns:inkscape="http://www.inkscape.org/namespaces/inkscape"
   version="1.1"
   id="svg1494"
   width="805.33331"
   height="805.33331"
   viewBox="0 0 805.33331 805.33331"
   sodipodi:docname="skillArduino.svg"
   inkscape:version="1.0 (4035a4fb49, 2020-05-01)">
  <metadata
     id="metadata1500">
    <rdf:RDF>
      <cc:Work
         rdf:about="">
        <dc:format>image/svg+xml</dc:format>
        <dc:type
           rdf:resource="http://purl.org/dc/dcmitype/StillImage" />
        <dc:title></dc:title>
      </cc:Work>
    </rdf:RDF>
  </metadata>
  <defs
     id="defs1498" />
  <sodipodi:namedview
     inkscape:document-rotation="0"
     pagecolor="#ffffff"
     bordercolor="#666666"
     borderopacity="1"
     objecttolerance="10"
     gridtolerance="10"
     guidetolerance="10"
     inkscape:pageopacity="0"
     inkscape:pageshadow="2"
     inkscape:window-width="2560"
     inkscape:window-height="1009"
     id="namedview1496"
     showgrid="false"
     inkscape:zoom="0.70037532"
     inkscape:cx="134.73531"
     inkscape:cy="479.90484"
     inkscape:window-x="-8"
     inkscape:window-y="-8"
     inkscape:window-maximized="1"
     inkscape:current-layer="g1502" />
  <g
     inkscape:groupmode="layer"
     inkscape:label="Image"
     id="g1502">
    <path
       sodipodi:type="star"
       style="fill:#2196f3;fill-opacity:1;stroke:none;stroke-width:4;stroke-linecap:round;paint-order:stroke fill markers"
       id="path2067"
       sodipodi:sides="6"
       sodipodi:cx="378.32898"
       sodipodi:cy="432.37598"
       sodipodi:r1="370.37375"
       sodipodi:r2="185.18687"
       sodipodi:arg1="0.77601758"
       sodipodi:arg2="1.2996164"
       inkscape:flatsided="true"
       inkscape:rounded="0.14"
       inkscape:randomized="0"
       d="M 642.66793,691.80156 C 606.34834,728.80902 336.03849,803.96297 285.82931,791.01301 235.62012,778.06306 35.379961,581.54483 21.490358,531.58743 7.6007548,481.63002 77.67045,209.95784 113.99003,172.95039 150.30961,135.94294 420.61947,60.788986 470.82865,73.73894 521.03784,86.688894 721.278,283.20712 735.1676,333.16453 c 13.8896,49.9574 -56.18009,321.62958 -92.49967,358.63703 z"
       inkscape:transform-center-x="11.1418"
       inkscape:transform-center-y="-26.763275"
       transform="matrix(0.81934778,-0.21112811,0.21112811,0.81934778,-16.972363,125.20915)" />
    <path
       sodipodi:nodetypes="ssssscccccssscccssssssscsscccccccsssssssscccsssssssssssssssssssssssssssssssssssssssssssssssssssssssssssssssssssssssssssssssssccccccsssssssscssssssssssssssssssssssssscccsscssscsscssss"
       style="fill:#1977c1;stroke-width:1.21682"
       d="m 212.1163,562.51564 c -4.23029,-2.32525 -5.47572,-4.96603 -5.47572,-11.61074 0,-7.83175 2.75811,-11.32728 8.93761,-11.32728 2.52494,0 4.9065,0.92398 6.27273,2.43365 2.18296,2.41215 3.7478,2.43366 176.97926,2.43366 H 573.607 l 4.51656,-5.40327 4.51665,-5.40326 v -98.74465 -98.74466 l -6.19441,-6.88754 c -3.40699,-3.78815 -6.69243,-8.15523 -7.30096,-9.70463 -0.60863,-1.54939 -1.10655,-16.74451 -1.10655,-33.76695 V 254.8401 H 396.46561 224.89299 v 16.76482 c 0,18.16893 -0.88401,21.18206 -6.88373,23.46316 -3.4395,1.30769 -9.36812,-1.14252 -10.61281,-4.3861 -0.41572,-1.08338 -0.75587,-12.60264 -0.75587,-25.59838 0,-21.90471 0.1753,-23.8039 2.4027,-26.0313 1.32149,-1.32149 3.64867,-2.70528 5.17152,-3.07511 1.52285,-0.36982 84.81617,-0.52063 185.09627,-0.33515 l 182.32745,0.33724 2.32609,2.87266 c 2.1692,2.67899 2.32608,5.22336 2.32608,37.73854 v 34.86585 l 7.30097,8.08938 7.30096,8.08938 V 435.1735 542.71191 l -9.56399,10.29691 -9.56399,10.29693 -183.60736,0.27379 c -131.65053,0.19632 -184.29599,-0.10475 -186.04098,-1.0639 z m -17.37323,-30.91639 c -2.6364,-1.84661 -2.70441,-2.48701 -2.70441,-25.46646 0,-19.80685 0.30545,-23.87765 1.91216,-25.48437 1.65419,-1.65419 6.88707,-1.91216 38.78946,-1.91216 32.78996,0 37.06243,0.22263 38.54736,2.00856 1.24791,1.50087 1.76588,7.64715 2.04927,24.31681 l 0.37925,22.30825 -3.0618,3.0618 -3.0618,3.0618 h -35.07255 c -29.77399,0 -35.48111,-0.28617 -37.77694,-1.89423 z m 167.95559,-29.33232 c -0.83657,-0.33756 -1.52104,-2.48463 -1.52104,-4.77124 0,-3.94021 0.2226,-4.1575 4.2589,-4.1575 3.85329,0 4.2589,0.32449 4.2589,3.40712 0,5.06802 -2.74748,7.23623 -6.99676,5.52162 z m 14.60192,0 c -0.83657,-0.33756 -1.52103,-2.48463 -1.52103,-4.77124 0,-3.94021 0.22259,-4.1575 4.25889,-4.1575 3.8533,0 4.2589,0.32449 4.2589,3.40712 0,5.06802 -2.74748,7.23623 -6.99676,5.52162 z m 13.77623,-1.10628 c -1.0517,-1.05168 -1.91216,-3.24196 -1.91216,-4.8673 0,-2.63647 0.5249,-2.95516 4.8673,-2.95516 4.34241,0 4.86731,0.31869 4.86731,2.95516 0,2.88963 -2.79269,6.77946 -4.86731,6.77946 -0.57364,0 -1.90347,-0.86046 -2.95514,-1.91216 z m 14.60192,0 c -1.05169,-1.05168 -1.91216,-3.24196 -1.91216,-4.8673 0,-2.63647 0.52491,-2.95516 4.86731,-2.95516 4.3424,0 4.8673,0.31869 4.8673,2.95516 0,2.88963 -2.79269,6.77946 -4.8673,6.77946 -0.57365,0 -1.90347,-0.86046 -2.95515,-1.91216 z m 14.60193,0 c -1.0517,-1.05168 -1.91216,-3.24196 -1.91216,-4.8673 0,-2.63647 0.5249,-2.95516 4.8673,-2.95516 4.34241,0 4.86731,0.31869 4.86731,2.95516 0,2.88963 -2.79269,6.77946 -4.86731,6.77946 -0.57364,0 -1.90347,-0.86046 -2.95514,-1.91216 z m 14.14996,0.45197 c -0.80311,-0.80311 -1.4602,-2.9934 -1.4602,-4.86731 0,-3.08263 0.40561,-3.40712 4.25889,-3.40712 4.03052,0 4.2589,0.2214 4.2589,4.12871 0,5.11929 -3.83267,7.37064 -7.05759,4.14572 z m 14.60192,0 c -0.8031,-0.80311 -1.46019,-2.9934 -1.46019,-4.86731 0,-3.08263 0.4056,-3.40712 4.25889,-3.40712 4.03051,0 4.2589,0.2214 4.2589,4.12871 0,5.11929 -3.83267,7.37064 -7.0576,4.14572 z m 14.60193,0 c -0.80311,-0.80311 -1.4602,-2.9934 -1.4602,-4.86731 0,-3.08263 0.40561,-3.40712 4.25889,-3.40712 3.8533,0 4.2589,0.32449 4.2589,3.40712 0,3.50563 -1.89934,6.3275 -4.2589,6.3275 -0.73617,0 -1.99559,-0.65709 -2.79869,-1.46019 z m 14.60192,0 c -0.8031,-0.80311 -1.46019,-2.9934 -1.46019,-4.86731 0,-3.08263 0.4056,-3.40712 4.25889,-3.40712 3.85329,0 4.2589,0.32449 4.2589,3.40712 0,3.50563 -1.89934,6.3275 -4.2589,6.3275 -0.73618,0 -1.99559,-0.65709 -2.7987,-1.46019 z m 14.60193,0 c -0.80311,-0.80311 -1.4602,-2.9934 -1.4602,-4.86731 0,-3.08263 0.40561,-3.40712 4.25889,-3.40712 3.8533,0 4.2589,0.32449 4.2589,3.40712 0,3.50563 -1.89934,6.3275 -4.2589,6.3275 -0.73617,0 -1.99559,-0.65709 -2.79869,-1.46019 z m 14.60189,0 c -0.80311,-0.80311 -1.4602,-2.9934 -1.4602,-4.86731 0,-3.08263 0.40566,-3.40712 4.25893,-3.40712 3.85326,0 4.25892,0.32449 4.25892,3.40712 0,3.50563 -1.89934,6.3275 -4.25892,6.3275 -0.73621,0 -1.99563,-0.65709 -2.79873,-1.46019 z m 14.66279,0.65431 c -0.8366,-0.33756 -1.52106,-2.48463 -1.52106,-4.77124 0,-3.94021 0.22259,-4.1575 4.25892,-4.1575 3.85327,0 4.25893,0.32449 4.25893,3.40712 0,5.06802 -2.74754,7.23623 -6.99679,5.52162 z m 14.77003,-0.12537 c -0.74415,-0.4917 -1.60749,-2.6736 -1.91869,-4.84868 -0.55387,-3.87131 -0.46763,-3.95469 4.09082,-3.95469 4.1192,0 4.65655,0.34098 4.65655,2.95516 0,1.62534 -0.86051,3.81562 -1.91212,4.8673 -2.12741,2.12736 -2.93708,2.2889 -4.91656,0.98091 z m 13.60818,-0.98091 c -1.05171,-1.05168 -1.91222,-3.24196 -1.91222,-4.8673 0,-2.63647 0.52494,-2.95516 4.86737,-2.95516 4.34234,0 4.86728,0.31869 4.86728,2.95516 0,2.88963 -2.79271,6.77946 -4.86728,6.77946 -0.57367,0 -1.90354,-0.86046 -2.95515,-1.91216 z M 352.25423,486.44283 c 0,-1e-5 -0.81125,-28.36803 -0.81104,-41.74033 l 215.1349,0.20597 c 2.04409,2.04416 2.04409,38.84123 0,40.88539 l -214.32386,0.64896 z m 210.91669,-21.09166 c 0,-6.02329 -0.5055,-10.95144 -1.12344,-10.95144 -0.61793,0 -2.80822,1.4176 -4.86728,3.15023 -2.97815,2.50592 -3.74384,4.1015 -3.74384,7.80121 0,3.6997 0.76569,5.29529 3.74384,7.80121 2.05906,1.73263 4.24935,3.15024 4.86728,3.15024 0.61794,0 1.12344,-4.92815 1.12344,-10.95145 z m -353.32417,4.77899 -3.20617,-2.52197 v -42.50064 c 0,-40.87819 0.0928,-42.59353 2.43366,-44.93427 3.62329,-3.62331 10.13669,-3.2449 13.29678,0.77251 2.43505,3.09566 2.52197,4.58253 2.52197,43.1401 0,42.24684 -0.30299,44.77115 -5.66715,47.21524 -4.16957,1.89976 -5.7216,1.706 -9.37909,-1.17097 z m 310.73519,-36.9429 c 0,-3.14084 0.61821,-4.3731 2.49209,-4.96785 3.38199,-1.0734 6.02576,1.40253 6.02576,5.64324 0,3.19048 -0.37828,3.5015 -4.25893,3.5015 -4.04017,0 -4.25892,-0.21452 -4.25892,-4.17689 z m 14.36619,-0.0408 c 0.87484,-7.49326 8.75358,-6.8487 8.75358,0.71616 0,3.24302 -0.34132,3.5015 -4.62297,3.5015 -4.55826,0 -4.61612,-0.0591 -4.13061,-4.21762 z m 13.62086,1.26251 c 0,-3.25362 2.87074,-6.77947 5.5198,-6.77947 2.03323,0 4.21485,3.73768 4.21485,7.22097 0,2.12137 -0.75957,2.51365 -4.86728,2.51365 -4.34243,0 -4.86737,-0.31869 -4.86737,-2.95515 z M 170.13578,369.22183 c -2.30386,-2.30385 -2.43366,-4.05608 -2.43366,-32.85433 0,-28.79823 0.1298,-30.55047 2.43366,-32.85432 2.33545,-2.33546 4.05608,-2.43366 42.64425,-2.43366 h 40.2106 l 2.98676,2.98676 2.98676,2.98675 v 29.09506 c 0,27.59218 -0.13027,29.26067 -2.52197,32.30123 l -2.52197,3.20616 h -40.6754 c -39.05295,0 -40.77245,-0.0971 -43.10903,-2.43365 z m 230.78529,-77.87692 -149.47317,-0.60841 -2.32601,-2.87267 c -3.1314,-3.86734 -2.92809,-7.85151 0.61063,-11.96562 l 2.93664,-3.41412 h 148.91589 c 140.18246,0 149.10788,0.12579 152.18953,2.14484 5.98451,3.92101 5.4812,12.4142 -0.94666,15.9759 -1.76063,0.97558 -43.76809,1.18024 -151.90685,0.74008 z"
       id="path2663" />
    <path
       id="path2669"
       style="fill:#ffffff;fill-opacity:1;stroke-width:1.21682"
       d="m 449.61164,337.74821 c -10.44623,0.016 -20.5379,2.59811 -30.92215,7.83569 -9.52198,4.8027 -23.99614,17.30089 -29.89545,25.81361 l -3.40806,4.91781 -5.11923,-6.95516 c -9.38708,-12.75146 -23.31358,-23.04212 -38.42096,-28.39283 -11.42659,-4.04707 -33.61117,-4.04539 -45.0232,0.005 -16.3111,5.78843 -29.18059,16.87317 -36.57077,31.49788 -4.87208,9.64158 -6.42183,18.28689 -5.71991,31.92032 1.28142,24.889 15.48592,44.08691 39.24802,53.04606 13.08047,4.9318 35.93686,5.3613 47.58103,0.89301 11.69444,-4.80954 13.31699,-5.78836 26.2271,-15.12155 l 8.78935,-8.41586 c 4.43123,-4.69733 8.05673,-9.15104 8.05673,-9.898 0,-0.74697 1.18401,0.22072 2.63092,2.15143 1.44688,1.9307 5.39806,6.3862 8.7804,9.89979 l 6.1495,6.38834 c 12.10101,7.44607 11.35822,8.49781 28.32901,14.43185 10.75256,2.88129 28.30989,11.35171 64.7465,-14.10351 15.95454,-16.25344 16.5494,-22.95035 18.42459,-34.27353 5.0216,-32.69172 -16.41873,-63.13462 -49.35815,-70.08105 -4.9546,-1.04485 -9.77699,-1.56692 -14.52527,-1.55965 z m -130.69365,23.10248 c 11.61898,0.26108 24.604,5.74857 34.8079,14.92276 7.23684,6.50655 18.95193,23.28317 17.72481,25.38404 -8.62963,14.77411 -20.26487,26.13266 -32.95059,32.1663 -10.89496,5.18193 -25.2543,6.5168 -34.36943,3.19417 -16.10926,-5.87212 -25.56049,-19.31373 -25.56049,-36.3533 0,-20.39757 14.84372,-36.76427 35.46385,-39.10186 1.59194,-0.18047 3.22409,-0.24941 4.88395,-0.21211 z m 132.09465,0.29589 c 10.33214,0.0293 20.12999,3.73651 28.13973,10.97283 15.38248,13.89717 15.75748,40.02475 0.7825,54.56827 -7.15274,6.94665 -15.84966,10.64897 -26.32696,11.20991 -4.91722,0.26326 -10.99683,-0.0409 -13.50927,-0.67556 -15.53147,-3.92349 -29.78283,-15.83077 -38.44413,-32.12352 l -2.53645,-4.77343 3.88042,-7.39543 c 5.01555,-9.55548 17.83132,-22.45444 26.45886,-26.63176 7.16638,-3.46985 14.48595,-5.17137 21.5553,-5.15131 z m -9.38822,17.69627 v 6.69136 6.69315 h -6.69136 -6.69314 v 7.30096 7.30096 h 6.69314 6.69136 v 6.08354 6.08533 h 7.30096 7.30096 v -6.08533 -6.08354 h 6.08533 6.08354 v -7.30096 -7.30096 h -6.08354 -6.08533 v -6.69315 -6.69136 h -7.30096 z m -139.93393,14.60193 v 6.69136 6.69314 h 19.46805 19.46983 v -6.69314 -6.69136 h -19.46983 z"
       sodipodi:nodetypes="sssccscssscccsscccccssssssssssscssccccssccccccccccccccccccccccccccccccccccc" />
  </g>
</svg>
