<?xml version="1.0" encoding="UTF-8" standalone="no"?>
<svg
   xmlns:dc="http://purl.org/dc/elements/1.1/"
   xmlns:cc="http://creativecommons.org/ns#"
   xmlns:rdf="http://www.w3.org/1999/02/22-rdf-syntax-ns#"
   xmlns:svg="http://www.w3.org/2000/svg"
   xmlns="http://www.w3.org/2000/svg"
   xmlns:sodipodi="http://sodipodi.sourceforge.net/DTD/sodipodi-0.dtd"
   xmlns:inkscape="http://www.inkscape.org/namespaces/inkscape"
   inkscape:version="1.0 (4035a4fb49, 2020-05-01)"
   sodipodi:docname="stats_example.svg"
   viewBox="0 0 805.33331 805.33331"
   height="805.33331"
   width="805.33331"
   id="svg1494"
   version="1.1">
  <metadata
     id="metadata1500">
    <rdf:RDF>
      <cc:Work
         rdf:about="">
        <dc:format>image/svg+xml</dc:format>
        <dc:type
           rdf:resource="http://purl.org/dc/dcmitype/StillImage" />
        <dc:title></dc:title>
      </cc:Work>
    </rdf:RDF>
  </metadata>
  <defs
     id="defs1498" />
  <sodipodi:namedview
     inkscape:current-layer="g1502"
     inkscape:window-maximized="1"
     inkscape:window-y="-8"
     inkscape:window-x="-8"
     inkscape:cy="397.61382"
     inkscape:cx="381.15811"
     inkscape:zoom="1.0176329"
     showgrid="false"
     id="namedview1496"
     inkscape:window-height="1009"
     inkscape:window-width="2560"
     inkscape:pageshadow="2"
     inkscape:pageopacity="0"
     guidetolerance="10"
     gridtolerance="10"
     objecttolerance="10"
     borderopacity="1"
     bordercolor="#666666"
     pagecolor="#ffffff" />
  <g
     id="g1502"
     inkscape:label="Image"
     inkscape:groupmode="layer">
    <path
       transform="matrix(0.81934778,-0.21112811,0.21112811,0.81934778,-16.972363,125.20915)"
       inkscape:transform-center-y="-26.763275"
       inkscape:transform-center-x="11.1418"
       d="M 642.66793,691.80156 C 606.34834,728.80902 336.03849,803.96297 285.82931,791.01301 235.62012,778.06306 35.379961,581.54483 21.490358,531.58743 7.6007548,481.63002 77.67045,209.95784 113.99003,172.95039 150.30961,135.94294 420.61947,60.788986 470.82865,73.73894 521.03784,86.688894 721.278,283.20712 735.1676,333.16453 c 13.8896,49.9574 -56.18009,321.62958 -92.49967,358.63703 z"
       inkscape:randomized="0"
       inkscape:rounded="0.14"
       inkscape:flatsided="true"
       sodipodi:arg2="1.2996164"
       sodipodi:arg1="0.77601758"
       sodipodi:r2="185.18687"
       sodipodi:r1="370.37375"
       sodipodi:cy="432.37598"
       sodipodi:cx="378.32898"
       sodipodi:sides="6"
       id="path2067"
       style="fill:#2196f3;fill-opacity:1;stroke:none;stroke-width:4;stroke-linecap:round;paint-order:stroke fill markers"
       sodipodi:type="star" />
    <g
       style="fill:#fffffc;fill-opacity:1;stroke:none"
       transform="matrix(1.0462797,0,0,1.0462797,-9.9721369,-7.9451336)"
       id="g2232">
      <path
         d="m 558.30441,301.82149 c 0,0 -7.11612,16.5557 -7.11612,28.46855 l -18.10424,17.01776 v 8.04451 l 14.08043,-5.72373 c 0,0 0.30969,22.27851 -0.61137,24.44456 -0.93429,2.16591 -58.32648,74.87992 -58.32648,74.87992 l -1.11843,0.0612 c 0,0 0.48901,-7.93365 -1.86036,-7.93365 -2.35119,0 -2.13356,7.71463 -2.13356,7.71463 l -0.48901,19.69164 c 0,0 0.60314,4.64931 1.25783,4.70387 0.65228,0.0612 0.98324,0.0612 0.98324,0.0612 0,0 1.53182,0.16227 2.02404,-4.97844 l 49.29803,1.87637 c 0,0 0.36686,6.05776 1.39241,8.35507 l 1.60183,-0.004 0.26898,16.02718 h 13.29134 l 0.48922,-16.24619 2.29401,0.0612 0.33417,10.39171 h 2.10166 v 0.004 h 2.78885 l 0.33416,-10.39489 2.29823,-0.0612 0.48901,16.24619 h 13.29134 l 0.26899,-16.02717 1.60122,0.004 c 1.02054,-2.29743 1.39322,-8.35519 1.39322,-8.35519 l 49.29703,-1.87968 c 0.4892,5.14177 2.02424,4.98175 2.02424,4.98175 0,0 0.33417,0.001 0.98303,-0.0612 0.65228,-0.0612 1.25884,-4.70385 1.25884,-4.70385 l -0.48922,-19.6919 c 0,0 0.21201,-7.71451 -2.13516,-7.71451 -2.35097,0 -1.85936,7.93377 -1.85936,7.93377 l -1.11863,-0.0612 c 0,0 -57.3978,-72.71399 -58.32548,-74.87992 -0.93429,-2.16594 -0.61137,-24.44445 -0.61137,-24.44445 l 14.07963,5.72361 v -8.04499 l -18.10363,-17.0184 c 0,-11.9128 -7.11613,-28.46852 -7.11613,-28.46852 z"
         style="display:inline;opacity:0.996;mix-blend-mode:normal;fill:#fffffc;fill-opacity:1;stroke:none;stroke-width:2.03812;stroke-linecap:butt;stroke-linejoin:miter;stroke-miterlimit:4;stroke-dasharray:none;stroke-opacity:1"
         id="path1375-1-0-5-6-5"
         inkscape:connector-curvature="0" />
      <path
         inkscape:connector-curvature="0"
         id="path3354-9-4-7"
         d="m 375.4387,132.36274 c 0,0 -10.85465,15.57406 -11.74322,39.12265 -0.88452,23.54855 -0.44023,49.31884 -0.44023,49.31884 0,0 0.44023,2.96503 -11.18235,10.89798 -11.62502,7.93315 -10.99729,6.59687 -10.99729,6.59687 0,0 1.4144,-18.69359 -0.39131,-20.89275 l -11.54675,-0.0775 c 0,0 -2.98533,14.29418 1.01984,26.62561 l -54.54546,34.83285 -27.69051,13.78682 -6.28371,9.11042 -0.62771,5.02737 95.82239,-33.3029 23.87774,-2.8276 2.82801,9.1105 c 0,0 0.38315,69.0747 6.15652,81.51543 l -32.65685,21.54859 c 0,0 -5.23207,5.48455 -3.7394,12.08212 l 39.50792,-12.96001 2.74974,14.84458 2.74811,-14.84458 39.50789,12.96001 c 1.4927,-6.59757 -3.73939,-12.08212 -3.73939,-12.08212 l -32.65682,-21.54859 c 5.77503,-12.44073 6.15734,-81.51543 6.15734,-81.51543 l 2.82718,-9.1105 23.87689,2.8276 95.82568,33.3029 -0.62762,-5.02737 -6.28212,-9.11042 -27.69209,-13.78682 -54.54477,-34.83285 c 4.00595,-12.33143 1.02074,-26.62561 1.02074,-26.62561 l -11.54432,0.0775 c -1.8074,2.19916 -0.39133,20.89275 -0.39133,20.89275 0,0 0.62782,1.33628 -10.99571,-6.59687 -11.62415,-7.93295 -11.18067,-10.898 -11.18067,-10.898 0,0 0.44021,-25.77027 -0.44022,-49.31889 -0.88451,-23.54852 -11.97229,-39.12258 -11.97229,-39.12258 z"
         style="display:inline;opacity:0.996;mix-blend-mode:normal;fill:#fffffc;fill-opacity:1;stroke:none;stroke-width:2.03812;stroke-linecap:butt;stroke-linejoin:miter;stroke-miterlimit:4;stroke-dasharray:none;stroke-opacity:1" />
      <path
         inkscape:connector-curvature="0"
         id="path847-8-6-6"
         style="display:inline;fill:#fffffc;fill-opacity:1;stroke:none;stroke-width:2.03812;stroke-linecap:butt;stroke-linejoin:miter;stroke-miterlimit:4;stroke-dasharray:none;stroke-opacity:1"
         d="m 375.70444,405.79233 c 0,0 -12.83071,9.00559 -12.83071,31.58263 v 25.04508 c 0,0 -5.79784,2.59029 -5.67557,9.25237 0,0.77553 -5.28749,2.03148 -5.9144,2.17269 -2.72364,0.61329 -0.71739,-5.13733 -1.94346,-10.70951 -0.9212,-4.19778 -3.73941,-4.04696 -3.73941,-4.04696 0,0 -4.25626,-1.2959 -3.51687,8.32716 0.74186,9.62295 0.36686,8.82224 0.36686,8.82224 l -19.92395,6.60026 -0.24456,-11.53592 c 0,0 -0.79891,-5.55178 -3.33179,-4.87325 -2.5288,0.67845 -3.63913,1.4193 -3.82418,5.36719 -0.18754,3.94789 0.12235,13.13895 0.12235,13.13895 l -32.26146,11.41205 0.24456,10.97941 72.91396,-2.89868 0.12235,8.45095 8.14242,4.87323 0.48913,21.96007 c 0,0 1.97363,20.54164 4.07038,26.03173 0,0 -27.73619,16.65116 -29.30629,20.14062 l -0.30978,9.4687 34.48293,-11.53592 c 0,0 0.68478,2.41428 1.81955,2.84531 v 0.049 c 0,-0.004 0.12236,-0.012 0.12236,-0.0244 0,0.004 0.12235,0.0244 0.12235,0.0244 v -0.0612 c 1.11848,-0.43265 1.81877,-2.84398 1.81877,-2.84398 l 34.48296,11.53592 -0.30989,-9.46882 c -1.56932,-3.48946 -29.30623,-20.14061 -29.30623,-20.14061 2.09675,-5.48996 4.07203,-26.03172 4.07203,-26.03172 l 0.48913,-21.95996 8.14317,-4.87323 0.12236,-8.45082 72.91397,2.89854 0.24451,-10.97929 -32.26229,-11.41203 c 0,0 0.2447,-9.1912 0.12236,-13.13921 -0.18655,-3.94777 -1.29535,-4.6885 -3.82564,-5.36716 -2.5281,-0.67844 -3.32941,4.87322 -3.32941,4.87322 l -0.2445,11.53593 -19.92409,-6.60015 c 0,0 -0.36686,0.80137 0.36686,-8.82233 0.73371,-9.62296 -3.51675,-8.32707 -3.51675,-8.32707 0,0 -2.81512,-0.15104 -3.73939,4.04696 -1.22934,5.57218 0.78246,11.3228 -1.93939,10.70966 -0.62781,-0.14141 -5.93244,-1.39693 -5.91778,-2.17281 0.12235,-6.66209 -5.67475,-9.2524 -5.67475,-9.2524 v -25.04506 c 0,-22.57716 -12.83072,-31.58264 -12.83072,-31.58264 z" />
      <path
         d="m 191.47896,295.43787 c 0,0 -9.61469,15.63954 -8.85978,56.53645 l -13.94594,13.19241 0.18754,27.89382 -49.19111,29.21186 v 27.89408 l 48.62451,13.37945 -13.94429,16.7721 0.38315,19.97776 25.06224,-17.90316 -0.18753,8.66884 8.29484,-0.56536 v -7.91617 h 3.58046 3.5796 v 7.91617 l 8.29404,0.56536 -0.18755,-8.66884 25.06797,17.90316 0.38316,-19.97776 -13.94838,-16.7721 48.62451,-13.37945 v -27.89408 l -49.1911,-29.21186 0.18753,-27.89382 -13.94917,-13.19241 c 0.75,-40.89691 -8.85654,-56.53645 -8.85654,-56.53645 z"
         style="display:inline;opacity:0.996;mix-blend-mode:normal;fill:#fffffc;fill-opacity:1;stroke:none;stroke-width:2.03812;stroke-linecap:butt;stroke-linejoin:miter;stroke-miterlimit:4;stroke-dasharray:none;stroke-opacity:1"
         id="path1373-8-3-8-4-81"
         inkscape:connector-curvature="0" />
    </g>
  </g>
</svg>
