<?xml version="1.0" encoding="UTF-8" standalone="no"?>
<svg
   xmlns:dc="http://purl.org/dc/elements/1.1/"
   xmlns:cc="http://creativecommons.org/ns#"
   xmlns:rdf="http://www.w3.org/1999/02/22-rdf-syntax-ns#"
   xmlns:svg="http://www.w3.org/2000/svg"
   xmlns="http://www.w3.org/2000/svg"
   xmlns:sodipodi="http://sodipodi.sourceforge.net/DTD/sodipodi-0.dtd"
   xmlns:inkscape="http://www.inkscape.org/namespaces/inkscape"
   sodipodi:docname="githubIcon.svg"
   inkscape:version="1.0 (4035a4fb49, 2020-05-01)"
   id="svg931"
   version="1.1"
   viewBox="0 0 132.29166 132.29167"
   height="500"
   width="500">
  <defs
     id="defs925" />
  <sodipodi:namedview
     inkscape:window-maximized="1"
     inkscape:window-y="-8"
     inkscape:window-x="-8"
     inkscape:window-height="1009"
     inkscape:window-width="2560"
     units="px"
     showgrid="false"
     inkscape:document-rotation="0"
     inkscape:current-layer="layer1"
     inkscape:document-units="mm"
     inkscape:cy="223.93885"
     inkscape:cx="386.44808"
     inkscape:zoom="0.91280313"
     inkscape:pageshadow="2"
     inkscape:pageopacity="0.0"
     borderopacity="1.0"
     bordercolor="#666666"
     pagecolor="#ffffff"
     id="base" />
  <metadata
     id="metadata928">
    <rdf:RDF>
      <cc:Work
         rdf:about="">
        <dc:format>image/svg+xml</dc:format>
        <dc:type
           rdf:resource="http://purl.org/dc/dcmitype/StillImage" />
        <dc:title />
      </cc:Work>
    </rdf:RDF>
  </metadata>
  <g
     id="layer1"
     inkscape:groupmode="layer"
     inkscape:label="Layer 1">
    <path
       id="path831"
       style="fill:#274b99;fill-opacity:1;stroke-width:1.31511;stroke-linecap:round;paint-order:stroke fill markers"
       d="M 65.596332,5.2963175 A 62.131331,62.131331 0 0 0 6.9239437,47.388322 62.131331,62.131331 0 0 0 45.509186,126.17472 a 62.131331,62.131331 0 0 0 4.856033,1.45263 c -0.442947,-4.80429 -1.67523,-9.23452 -7.409884,-9.62319 -8.843562,-0.59937 -11.601613,-2.87682 -14.198615,-7.68377 -0.99404,-1.83991 -3.159133,-4.93568 -4.811591,-6.87916 -3.49618,-4.111875 -3.678817,-4.88394 -1.155486,-4.88394 1.01695,0 4.393735,2.66959 7.503935,5.93245 6.14815,6.44992 8.434121,9.15735 16.109093,6.16655 3.53686,-1.37825 6.811936,-6.32704 5.336625,-9.08368 C 51.212807,100.5889 48.159388,98.252012 45.285428,97.539782 34.048415,94.755011 27.597895,87.417406 25.355895,74.86933 c -1.36735,-7.652779 -0.17359,-14.755529 3.513479,-20.9057 1.5846,-2.644719 2.015083,-4.794909 1.590601,-7.959719 -0.319879,-2.384875 -0.111292,-6.039633 0.463539,-8.12147 1.27317,-4.611005 3.475276,-4.856017 11.321788,-1.260388 6.83091,3.543096 6.805703,0.863722 24.035742,0.715719 16.494651,-0.141674 17.766927,2.428378 23.489523,-0.861962 6.964288,-4.004278 9.51851,-3.146089 10.775573,1.406631 0.57473,2.081837 0.78339,5.736595 0.46353,8.12147 -0.42449,3.16481 0.005,5.315 1.5906,7.959719 7.7928,12.99863 3.85071,32.840723 -7.891504,39.722123 -2.660121,1.558941 -6.702621,3.331922 -8.983948,3.939813 -5.520388,1.470956 -6.948657,3.435954 -5.689058,7.827944 0.547111,1.90766 0.994773,8.41296 0.994773,14.45596 0,3.97738 -0.09395,6.18668 -0.167434,7.77937 A 62.131331,62.131331 0 0 0 124.41755,87.839081 l 0.25373,-0.744657 A 62.131331,62.131331 0 0 0 85.588394,8.553483 62.131331,62.131331 0 0 0 65.596332,5.2963175 Z" />
  </g>
</svg>
