<?xml version="1.0" encoding="UTF-8" standalone="no"?>
<svg
   xmlns:dc="http://purl.org/dc/elements/1.1/"
   xmlns:cc="http://creativecommons.org/ns#"
   xmlns:rdf="http://www.w3.org/1999/02/22-rdf-syntax-ns#"
   xmlns:svg="http://www.w3.org/2000/svg"
   xmlns="http://www.w3.org/2000/svg"
   xmlns:sodipodi="http://sodipodi.sourceforge.net/DTD/sodipodi-0.dtd"
   xmlns:inkscape="http://www.inkscape.org/namespaces/inkscape"
   sodipodi:docname="simulation_logo.svg"
   viewBox="0 0 2968 2991.0001"
   height="2991"
   width="2968"
   xml:space="preserve"
   inkscape:version="1.0 (4035a4fb49, 2020-05-01)"
   version="1.1"
   id="svg2"><metadata
     id="metadata8"><rdf:RDF><cc:Work
         rdf:about=""><dc:format>image/svg+xml</dc:format><dc:type
           rdf:resource="http://purl.org/dc/dcmitype/StillImage" /><dc:title></dc:title></cc:Work></rdf:RDF></metadata><defs
     id="defs6"><clipPath
       id="clipPath60"
       clipPathUnits="userSpaceOnUse"><path
         inkscape:connector-curvature="0"
         id="path62"
         d="M 0,1080 H 1920 V 0 H 0 Z" /></clipPath><clipPath
       id="clipPath76"
       clipPathUnits="userSpaceOnUse"><path
         inkscape:connector-curvature="0"
         id="path78"
         d="m 1006.33,499.339 h 1.94 v -1.998 h -1.94 z" /></clipPath><clipPath
       id="clipPath76-1"
       clipPathUnits="userSpaceOnUse"><path
         inkscape:connector-curvature="0"
         id="path78-7"
         d="m 1006.33,499.339 h 1.94 v -1.998 h -1.94 z" /></clipPath></defs><sodipodi:namedview
     inkscape:document-rotation="0"
     width="2970mm"
     units="px"
     fit-margin-bottom="0"
     fit-margin-right="0"
     fit-margin-left="0"
     fit-margin-top="0"
     inkscape:current-layer="g10"
     inkscape:window-maximized="1"
     inkscape:window-y="-8"
     inkscape:window-x="-8"
     inkscape:cy="1678.412"
     inkscape:cx="1081.4668"
     inkscape:zoom="0.18983944"
     showgrid="false"
     id="namedview4"
     inkscape:window-height="1009"
     inkscape:window-width="2560"
     inkscape:pageshadow="2"
     inkscape:pageopacity="0"
     guidetolerance="10"
     gridtolerance="10"
     objecttolerance="10"
     borderopacity="1"
     bordercolor="#666666"
     pagecolor="#ffffff" /><g
     transform="matrix(1.25,0,0,-1.25,-325.25,3506.2512)"
     inkscape:label="Logo infu"
     inkscape:groupmode="layer"
     id="g10"><ellipse
       inkscape:export-ydpi="96"
       inkscape:export-xdpi="96"
       inkscape:export-filename="FinalPatch.png"
       cx="331.11374"
       cy="2123.6335"
       rx="938.14398"
       ry="939.68042"
       transform="matrix(-0.63203363,0.77494096,0.77494096,0.63203363,0,0)"
       id="ellipse2439-7"
       style="display:inline;mix-blend-mode:normal;fill:#1ce6a3;fill-opacity:1;stroke:none;stroke-width:314.889;stroke-linecap:round;stroke-miterlimit:4;stroke-dasharray:none;stroke-opacity:1;paint-order:stroke fill markers" /><path
       d="m 2028.2537,1873.1314 c 0,0 -22.8681,-53.2035 -22.8681,-91.4865 l -58.1799,-54.6876 v -25.8515 l 45.2488,18.393 c 0,0 0.9955,-71.5932 -1.9649,-78.5546 -3.0023,-6.9598 -187.437,-240.6328 -187.437,-240.6328 l -3.5944,-0.1934 c 0,0 1.5719,25.4955 -5.9782,25.4955 -7.5555,0 -6.8561,-24.7921 -6.8561,-24.7921 l -1.5717,-63.2805 c 0,0 1.9385,-14.9413 4.0422,-15.1161 2.0959,-0.1934 3.1594,-0.1934 3.1594,-0.1934 0,0 4.9227,-0.5237 6.5049,15.9984 l 158.4232,-6.03 c 0,0 1.1788,-19.4671 4.4745,-26.8499 h 5.1479 l 0.8645,-51.5041 h 42.7129 l 1.5718,52.2083 7.372,-0.1934 1.0742,-33.3947 h 6.7536 v 0 h 8.9624 l 1.074,33.4052 7.3851,0.1934 1.572,-52.2092 h 42.7127 l 0.8645,51.505 h 5.1453 c 3.28,7.3828 4.4773,26.8499 4.4773,26.8499 l 158.4203,6.0404 c 1.5719,-16.5228 6.505,-16.0088 6.505,-16.0088 0,0 1.074,0 3.1594,0.1934 2.0958,0.1933 4.0449,15.1161 4.0449,15.1161 l -1.5719,63.2813 c 0,0 0.6808,24.7913 -6.8612,24.7913 -7.5554,0 -5.9756,-25.4955 -5.9756,-25.4955 l -3.5945,0.1934 c 0,0 -184.453,233.6729 -187.4343,240.6328 -3.0022,6.9605 -1.9649,78.5546 -1.9649,78.5546 l 45.2462,-18.393 v 25.8531 l -58.1773,54.69 c 0,38.2831 -22.8682,91.4864 -22.8682,91.4864 z"
       style="display:inline;opacity:0.996;mix-blend-mode:normal;fill:#b9b9b9;fill-opacity:1;stroke:#000000;stroke-width:6.54968;stroke-linecap:butt;stroke-linejoin:miter;stroke-miterlimit:4;stroke-dasharray:none;stroke-opacity:1"
       id="path1375-1-0-5-6-5"
       inkscape:connector-curvature="0" /><path
       inkscape:connector-curvature="0"
       id="path3354-9-4-7"
       d="m 1440.5988,2417.7015 c 0,0 -34.8822,-50.0482 -37.7378,-125.724 -2.8425,-75.6749 -1.4147,-158.4902 -1.4147,-158.4902 0,0 1.4147,-9.5285 -35.9355,-35.0215 -37.358,-25.4939 -35.3407,-21.1993 -35.3407,-21.1993 0,0 4.5453,60.073 -1.2575,67.1408 l -37.1065,0.2497 c 0,0 -9.5937,-45.935 3.2773,-85.5636 l -175.2865,-111.938 -88.9859,-44.3051 -20.1933,-29.2775 -2.0171,-16.1555 307.9335,107.0215 76.7333,9.087 9.088,-29.2775 c 0,0 1.2312,-221.9778 19.7845,-261.9569 l -104.9456,-69.2486 c 0,0 -16.8137,-17.6251 -12.0169,-38.8269 l 126.9623,41.6486 8.8364,-47.7044 8.8312,47.7044 126.9622,-41.6486 c 4.7968,21.2018 -12.017,38.8269 -12.017,38.8269 l -104.9455,69.2486 c 18.5585,39.9791 19.7872,261.9569 19.7872,261.9569 l 9.0854,29.2775 76.7306,-9.087 307.9441,-107.0215 -2.0173,16.1555 -20.188,29.2775 -88.9912,44.3051 -175.2838,111.938 c 12.8735,39.6286 3.2799,85.5636 3.2799,85.5636 l -37.0986,-0.2497 c -5.8079,-7.0678 -1.2575,-67.1408 -1.2575,-67.1408 0,0 2.0172,-4.2946 -35.3355,21.1993 -37.3554,25.493 -35.9303,35.0215 -35.9303,35.0215 0,0 1.4147,82.8153 -1.4146,158.491 -2.8425,75.675 -38.474,125.7232 -38.474,125.7232 z"
       style="display:inline;opacity:0.996;mix-blend-mode:normal;fill:#b9b9b9;fill-opacity:1;stroke:#000000;stroke-width:6.54968;stroke-linecap:butt;stroke-linejoin:miter;stroke-miterlimit:4;stroke-dasharray:none;stroke-opacity:1" /><path
       inkscape:connector-curvature="0"
       id="path847-8-6-6"
       style="display:inline;fill:#b9b9b9;fill-opacity:1;stroke:#000000;stroke-width:6.54968;stroke-linecap:butt;stroke-linejoin:miter;stroke-miterlimit:4;stroke-dasharray:none;stroke-opacity:1"
       d="m 1441.4528,1539.0124 c 0,0 -41.2326,-28.9408 -41.2326,-101.4936 v -80.4851 c 0,0 -18.6317,-8.3239 -18.2388,-29.7328 0,-2.4928 -16.9919,-6.5287 -19.0066,-6.9823 -8.7526,-1.9707 -2.3054,16.5093 -6.2455,34.4156 -2.9603,13.4901 -12.0168,13.006 -12.0168,13.006 0,0 -13.678,4.1639 -11.3018,-26.7604 2.384,-30.9245 1.179,-28.351 1.179,-28.351 l -64.0274,-21.2106 -0.7856,37.072 c 0,0 -2.5673,17.8411 -10.707,15.6601 -8.1265,-2.1803 -11.6947,-4.5612 -12.2894,-17.2482 -0.6027,-12.6868 0.3931,-42.223 0.3931,-42.223 l -103.6749,-36.6732 0.7855,-35.2833 234.3154,9.3149 0.3931,-27.1576 26.1664,-15.6609 1.5718,-70.5706 c 0,0 6.3424,-66.012 13.0804,-83.6549 0,0 -89.1324,-53.51034 -94.1782,-64.72357 l -0.9956,-30.42887 110.814,37.07208 c 0,0 2.2006,-7.75829 5.8474,-9.14419 v -0.15311 c 0,0 0.3931,0 0.3931,0.081 0,0 0.3932,-0.081 0.3932,-0.081 v 0.19339 c 3.5943,1.39067 5.8448,9.13931 5.8448,9.13931 l 110.8138,-37.07123 -0.9955,30.42885 c -5.0431,11.21323 -94.1783,64.72364 -94.1783,64.72364 6.7381,17.6421 13.0857,83.6548 13.0857,83.6548 l 1.572,70.5708 26.1689,15.6599 0.3932,27.1577 234.3153,-9.3149 0.7856,35.2833 -103.6776,36.6732 c 0,0 0.7856,29.5369 0.3932,42.2239 -0.6027,12.6868 -4.1629,15.067 -12.2946,17.248 -8.124,2.1803 -10.6992,-15.66 -10.6992,-15.66 l -0.7856,-37.072 -64.0274,21.2097 c 0,0 -1.1788,-2.5751 1.179,28.3518 2.3579,30.9244 -11.3017,26.7596 -11.3017,26.7596 0,0 -9.0461,0.4834 -12.0168,-13.0051 -3.9506,-17.9064 2.5149,-36.3872 -6.2326,-34.4164 -2.0171,0.4511 -19.0641,4.4886 -19.0168,6.9824 0.3931,21.4088 -18.2364,29.7335 -18.2364,29.7335 v 80.4843 c 0,72.5536 -41.2326,101.4935 -41.2326,101.4935 z" /><g
       transform="matrix(12.595538,0,0,-12.595538,-14622.215,3829.5848)"
       id="g3227-7-2"><g
         id="g3241-6-4"><ellipse
           cx="-941.81927"
           cy="874.83295"
           rx="78.850189"
           ry="79.019333"
           transform="matrix(-0.63298931,-0.77416054,0.77571982,-0.63107746,0,0)"
           id="ellipse2439-1-0-0"
           style="display:inline;opacity:1;mix-blend-mode:normal;fill:none;fill-opacity:1;stroke:#00205b;stroke-width:15.8837;stroke-linecap:round;stroke-miterlimit:4;stroke-dasharray:none;stroke-opacity:1;paint-order:stroke fill markers" /><g
           transform="rotate(-91.276931,1291.3342,166.7702)"
           id="g3299-9-40" /><path
           id="path4765-44-3-7"
           d="m 1325.6903,227.41721 -3.4103,-3.58282 -0.1068,-2.62968 -4.4136,-4.60981"
           style="display:inline;fill:none;stroke:#00205b;stroke-width:1.92433;stroke-linecap:butt;stroke-linejoin:miter;stroke-miterlimit:4;stroke-dasharray:none;stroke-opacity:1"
           inkscape:connector-curvature="0" /><ellipse
           ry="1.5415747"
           rx="1.5415748"
           cy="-1050.9431"
           cx="-824.15692"
           id="path4769-76-03-5"
           style="display:inline;opacity:1;fill:#1be68e;fill-opacity:1;fill-rule:nonzero;stroke:#00205b;stroke-width:1.40696;stroke-linecap:square;stroke-miterlimit:4;stroke-dasharray:none;stroke-dashoffset:0;stroke-opacity:1;paint-order:fill markers stroke"
           transform="rotate(137.43585)" /><path
           style="display:inline;fill:none;stroke:#00205b;stroke-width:1.92433;stroke-linecap:butt;stroke-linejoin:miter;stroke-miterlimit:4;stroke-dasharray:none;stroke-opacity:1"
           d="m 1322.2893,230.66058 -3.4103,-3.58272 -0.1069,-2.62968 -4.4135,-4.6099"
           id="path4765-7-3-0-9"
           inkscape:connector-curvature="0" /><ellipse
           cx="-819.45819"
           cy="-1051.0315"
           rx="1.5415748"
           ry="1.5415747"
           style="display:inline;opacity:1;fill:#1be68e;fill-opacity:1;fill-rule:nonzero;stroke:#00205b;stroke-width:1.40696;stroke-linecap:square;stroke-miterlimit:4;stroke-dasharray:none;stroke-dashoffset:0;stroke-opacity:1;paint-order:fill markers stroke"
           id="path4769-0-1-9-7"
           transform="rotate(137.43585)" /><path
           style="display:inline;fill:none;stroke:#00205b;stroke-width:1.92433;stroke-linecap:butt;stroke-linejoin:miter;stroke-miterlimit:4;stroke-dasharray:none;stroke-opacity:1"
           d="m 1318.7765,233.88694 -3.4104,-3.58283 -0.1068,-2.62968 -4.4135,-4.6098"
           id="path4765-9-75-2-8"
           inkscape:connector-curvature="0" /><ellipse
           cx="-814.68854"
           cy="-1051.0316"
           rx="1.5415748"
           ry="1.5415747"
           style="display:inline;opacity:1;fill:#1be68e;fill-opacity:1;fill-rule:nonzero;stroke:#00205b;stroke-width:1.40696;stroke-linecap:square;stroke-miterlimit:4;stroke-dasharray:none;stroke-dashoffset:0;stroke-opacity:1;paint-order:fill markers stroke"
           id="path4769-7-9-5-5"
           transform="rotate(137.43585)" /><path
           sodipodi:nodetypes="ccc"
           id="path4812-6-4-3"
           d="m 1315.1245,229.34713 -6.0857,0.2052 -4.7614,-4.95374"
           style="display:inline;fill:none;stroke:#00205b;stroke-width:1.92433;stroke-linecap:butt;stroke-linejoin:miter;stroke-miterlimit:4;stroke-dasharray:none;stroke-opacity:1"
           inkscape:connector-curvature="0" /><ellipse
           cx="-808.61151"
           cy="-1047.5609"
           rx="1.5415748"
           ry="1.5415747"
           id="path4769-0-0-21-0-3"
           style="display:inline;opacity:1;fill:#1be68e;fill-opacity:1;fill-rule:nonzero;stroke:#00205b;stroke-width:1.40696;stroke-linecap:square;stroke-miterlimit:4;stroke-dasharray:none;stroke-dashoffset:0;stroke-opacity:1;paint-order:fill markers stroke"
           transform="rotate(137.43585)" /><path
           style="display:inline;fill:none;stroke:#00205b;stroke-width:1.92433;stroke-linecap:butt;stroke-linejoin:miter;stroke-miterlimit:4;stroke-dasharray:none;stroke-opacity:1"
           d="m 1313.6567,211.97693 6.0863,-0.1881 4.7474,4.96708"
           id="path4812-9-7-5-8"
           sodipodi:nodetypes="ccc"
           inkscape:connector-curvature="0" /><ellipse
           transform="rotate(-42.402783)"
           style="display:inline;opacity:1;fill:#1be68e;fill-opacity:1;fill-rule:nonzero;stroke:#00205b;stroke-width:1.40696;stroke-linecap:square;stroke-miterlimit:4;stroke-dasharray:none;stroke-dashoffset:0;stroke-opacity:1;paint-order:fill markers stroke"
           id="path4769-0-0-7-8-9-3"
           ry="1.5415747"
           rx="1.5415748"
           cy="1053.3057"
           cx="832.01819" /><ellipse
           cx="-824.54364"
           cy="-1045.0104"
           rx="1.5415748"
           ry="1.5415747"
           id="path4769-7-4-57-46-7"
           style="display:inline;opacity:1;fill:#1be68e;fill-opacity:1;fill-rule:nonzero;stroke:#00205b;stroke-width:1.40696;stroke-linecap:square;stroke-miterlimit:4;stroke-dasharray:none;stroke-dashoffset:0;stroke-opacity:1;paint-order:fill markers stroke"
           transform="rotate(137.43585)" /><path
           id="path4765-44-9-9"
           d="m 1231.9283,234.38475 3.3174,-3.66896 2.6143,-0.30349 4.2665,-4.74628"
           style="display:inline;fill:none;stroke:#00205b;stroke-width:1.92433;stroke-linecap:butt;stroke-linejoin:miter;stroke-miterlimit:4;stroke-dasharray:none;stroke-opacity:1"
           inkscape:connector-curvature="0" /><ellipse
           ry="1.5415747"
           rx="1.5415748"
           cy="684.6535"
           cx="-1060.752"
           id="path4769-76-2-3"
           style="display:inline;opacity:1;fill:#1be68e;fill-opacity:1;fill-rule:nonzero;stroke:#00205b;stroke-width:1.40696;stroke-linecap:square;stroke-miterlimit:4;stroke-dasharray:none;stroke-dashoffset:0;stroke-opacity:1;paint-order:fill markers stroke"
           transform="rotate(-136.858)" /><path
           style="display:inline;fill:none;stroke:#00205b;stroke-width:1.92433;stroke-linecap:butt;stroke-linejoin:miter;stroke-miterlimit:4;stroke-dasharray:none;stroke-opacity:1"
           d="m 1228.4395,231.23611 3.3173,-3.66895 2.6143,-0.30349 4.2664,-4.74627"
           id="path4765-7-3-2-7"
           inkscape:connector-curvature="0" /><ellipse
           cx="-1056.0531"
           cy="684.56519"
           rx="1.5415748"
           ry="1.5415747"
           style="display:inline;opacity:1;fill:#1be68e;fill-opacity:1;fill-rule:nonzero;stroke:#00205b;stroke-width:1.40696;stroke-linecap:square;stroke-miterlimit:4;stroke-dasharray:none;stroke-dashoffset:0;stroke-opacity:1;paint-order:fill markers stroke"
           id="path4769-0-1-4-8"
           transform="rotate(-136.858)" /><path
           style="display:inline;fill:none;stroke:#00205b;stroke-width:1.92433;stroke-linecap:butt;stroke-linejoin:miter;stroke-miterlimit:4;stroke-dasharray:none;stroke-opacity:1"
           d="m 1224.9591,227.97469 3.3173,-3.66894 2.6143,-0.30349 4.2666,-4.74628"
           id="path4765-9-75-7-7"
           inkscape:connector-curvature="0" /><ellipse
           cx="-1051.2834"
           cy="684.56506"
           rx="1.5415748"
           ry="1.5415747"
           style="display:inline;opacity:1;fill:#1be68e;fill-opacity:1;fill-rule:nonzero;stroke:#00205b;stroke-width:1.40696;stroke-linecap:square;stroke-miterlimit:4;stroke-dasharray:none;stroke-dashoffset:0;stroke-opacity:1;paint-order:fill markers stroke"
           id="path4769-7-9-7-4"
           transform="rotate(-136.858)" /><path
           sodipodi:nodetypes="ccc"
           id="path4812-6-5-1"
           d="m 1229.2128,223.99311 -0.6604,-6.05329 4.5833,-5.1189"
           style="display:inline;fill:none;stroke:#00205b;stroke-width:1.92433;stroke-linecap:butt;stroke-linejoin:miter;stroke-miterlimit:4;stroke-dasharray:none;stroke-opacity:1"
           inkscape:connector-curvature="0" /><ellipse
           cx="-1045.2064"
           cy="688.03571"
           rx="1.5415748"
           ry="1.5415747"
           id="path4769-0-0-21-4-9"
           style="display:inline;opacity:1;fill:#1be68e;fill-opacity:1;fill-rule:nonzero;stroke:#00205b;stroke-width:1.40696;stroke-linecap:square;stroke-miterlimit:4;stroke-dasharray:none;stroke-dashoffset:0;stroke-opacity:1;paint-order:fill markers stroke"
           transform="rotate(-136.858)" /><path
           style="display:inline;fill:none;stroke:#00205b;stroke-width:1.92433;stroke-linecap:butt;stroke-linejoin:miter;stroke-miterlimit:4;stroke-dasharray:none;stroke-opacity:1"
           d="m 1246.4243,221.22887 0.6435,6.05511 -4.5977,5.10597"
           id="path4812-9-7-8-0"
           sodipodi:nodetypes="ccc"
           inkscape:connector-curvature="0" /><ellipse
           transform="rotate(43.303368)"
           style="display:inline;opacity:1;fill:#1be68e;fill-opacity:1;fill-rule:nonzero;stroke:#00205b;stroke-width:1.40696;stroke-linecap:square;stroke-miterlimit:4;stroke-dasharray:none;stroke-dashoffset:0;stroke-opacity:1;paint-order:fill markers stroke"
           id="path4769-0-0-7-8-1-9"
           ry="1.5415747"
           rx="1.5415748"
           cy="-682.9505"
           cx="1063.7242" /><ellipse
           cx="-1061.1385"
           cy="690.5863"
           rx="1.5415748"
           ry="1.5415747"
           id="path4769-7-4-57-2-8"
           style="display:inline;opacity:1;fill:#1be68e;fill-opacity:1;fill-rule:nonzero;stroke:#00205b;stroke-width:1.40696;stroke-linecap:square;stroke-miterlimit:4;stroke-dasharray:none;stroke-dashoffset:0;stroke-opacity:1;paint-order:fill markers stroke"
           transform="rotate(-136.858)" /></g></g><path
       inkscape:connector-curvature="0"
       id="path1377-5-8"
       style="display:inline;opacity:0.996;mix-blend-mode:normal;fill:#b9b9b9;fill-opacity:1;stroke:#000000;stroke-width:6.54968;stroke-linecap:butt;stroke-linejoin:miter;stroke-miterlimit:4;stroke-dasharray:none;stroke-opacity:1"
       d="m 1025.6788,2273.4926 c 0,0 -0.3932,-0.081 -0.3932,-0.2819 -1.7814,-1.4463 -9.549,-8.5657 -9.7352,-22.0551 -0.3931,-15.2224 0,-75.6096 0,-75.6096 l -192.54283,-4.5072 c 0,0 -5.45698,-2.1022 -5.347,-11.9166 l 198.17033,-12.4187 c 0,0 -0.3932,-16.7114 0.4456,-18.4107 l -14.7678,-0.2095 c 0,0 0.3931,6.9421 -3.79082,10.978 h -8.29424 c 0,0 -3.63359,-3.5412 -3.39785,-11.3309 0.39321,-7.7897 0.86459,-14.2339 0.86459,-14.2339 0,0 -2.61973,-0.7815 -2.56741,-3.1866 0.39322,-2.4083 0.39322,-3.256 0.39322,-3.256 l 2.92107,-0.1288 0.39321,2.6919 c 0,0 0.39311,-3.824 2.09583,-4.533 v -1.2754 c 0,0 -5.53043,1.9127 -11.85973,1.4164 0,0 -6.54948,-1.344 -7.64193,-1.9829 -1.10033,-0.6365 -0.94317,-0.9886 -0.94317,-0.9886 0,0 5.31025,-4.7448 21.02634,-0.9242 0,0 2.09583,-3.8247 3.4372,-3.8949 1.30981,-0.081 3.35591,3.8949 3.35591,3.8949 0,0 9.67748,-1.4865 13.74858,-1.0635 4.0763,0.427 6.5521,3.8956 6.5521,3.8956 0,0 -1.5458,1.8387 -8.0768,0.9878 -6.5468,-0.8484 -11.3515,-1.0643 -11.3515,-1.0643 0,0 0.62844,8.2852 2.4887,2.9054 0.3932,-0.4592 0.7865,-0.4673 1.4672,-0.3142 0.3931,0 -0.6027,-0.145 1.86,0.4351 0.3932,0.081 0.4721,2.4743 -1.0218,4.9406 -0.9955,1.6164 -3.27989,1.7758 -1.074,1.5552 4.9172,-0.4835 15.7056,0.725 15.9832,-0.3385 1.4933,-5.9301 2.6459,-29.7424 6.1407,-39.3611 0.3932,-0.8807 0.7074,-4.6957 0.3932,-4.9745 -4.7706,-2.0087 -46.94112,-9.7339 -46.90438,-10.8192 0.39311,-3.1673 -0.39321,-10.1183 -0.39321,-12.1455 0.39321,-0.6364 24.69659,0.5801 44.26369,1.0797 0.6027,0.01 0.6809,6.0638 1.6242,8.1909 0.3933,0.266 1.2576,0.4593 1.7815,0.2176 0,0 0.3932,0 0.3932,0 l -0.3932,-13.6368 c 0.3932,1.6098 -0.4456,0.3706 0.9432,0.4351 1.336,0 0.6808,1.1715 0.943,-0.4351 l -0.3932,13.6368 c 0.3932,0 0.3932,0 0.3932,0 0.5237,0.2417 1.6243,0 1.7815,-0.2176 0.9432,-2.1271 0.9955,-8.1748 1.6243,-8.1909 19.5644,-0.4915 44.1536,-1.7227 44.2611,-1.0797 0.3932,2.028 -0.3932,8.9782 -0.3932,12.1455 0.3932,1.0853 -42.1338,8.8114 -46.9018,10.8192 -0.6808,0.2739 -0.3932,4.0906 0.3932,4.9745 3.4738,9.6187 4.616,33.431 6.1407,39.3611 0.3932,1.066 11.0713,-0.145 15.9885,0.3385 2.2531,0.2174 -0.3931,0 -1.074,-1.5552 -1.5457,-2.4663 -1.31,-4.8681 -1.0217,-4.9406 2.4363,-0.5962 1.729,-0.4109 1.8077,-0.4351 0.6807,-0.145 1.3098,-0.145 1.4669,0.3142 1.8863,5.3798 2.4889,-2.9054 2.4889,-2.9054 0,0 -4.8072,0.2095 -11.3542,1.0643 -6.5441,0.8485 -8.0741,-0.9878 -8.0741,-0.9878 0,0 2.4888,-3.471 6.5442,-3.8956 4.0763,-0.427 13.7616,1.0635 13.7616,1.0635 0,0 2.0434,-3.9658 3.3561,-3.8949 1.336,0.081 3.437,3.8949 3.437,3.8949 15.7161,-3.8239 21.0237,0.9242 21.0237,0.9242 0,0 0.3932,0.3545 -0.9955,0.9886 -1.1002,0.6366 -7.6418,1.9829 -7.6418,1.9829 -6.332,0.4915 -11.8625,-1.4164 -11.8625,-1.4164 v 1.2754 c 1.8863,0.709 2.1221,4.533 2.1221,4.533 l 0.3931,-2.6919 2.9237,0.1288 c 0,0 0.3932,0.8477 0.3932,3.256 0.3932,2.4075 -2.5149,3.1866 -2.5149,3.1866 0,0 0.6809,6.4442 0.8384,14.2339 0.3932,7.7897 -3.4346,11.3309 -3.4346,11.3309 h -8.2916 c -4.0004,-4.0359 -3.7908,-10.978 -3.7908,-10.978 l -14.7677,0.2095 c 0.6027,1.6977 0.4456,18.4107 0.4456,18.4107 l 198.1702,12.4187 c 0.3932,9.8144 -5.3522,11.9166 -5.3522,11.9166 l -192.5429,4.5072 c 0,0 0.3932,60.3872 0,75.6096 -0.3933,13.4894 -7.9667,20.608 -9.7273,22.0551 -0.3932,0.1933 -0.3932,0.2819 -0.3932,0.2819 z"
       sodipodi:nodetypes="cssccccccccscsccccccsccscscscsccssssssscsscccccsccssscsssccccscscsccsccccccscsccccccccscc" /><g
       style="font-size:9.87778px;line-height:0%;font-family:'SF Alien Encounters';-inkscape-font-specification:'SF Alien Encounters, Normal';display:inline;fill:#1ce6a3;stroke-width:0.416478"
       id="text4250-39-5-0"
       transform="matrix(12.593141,-0.24565108,-0.24565108,-12.593141,-9219.6411,4030.9942)"
       aria-label="        SIMULATION "><path
         id="path6558"
         style="font-family:'Alien Encounters Solid';-inkscape-font-specification:'Alien Encounters Solid'"
         d="m 824.15698,104.21953 q 0.14887,0.37663 -0.0178,0.76115 -0.1611,0.3717 -0.53773,0.52057 l -4.5931,1.81553 -0.50834,-1.28606 4.13378,-1.63398 -0.65359,-1.65351 -3.21517,1.27087 q -0.37663,0.14887 -0.75752,-0.009 -0.37533,-0.17028 -0.5242,-0.54692 l -0.65359,-1.65351 q -0.14887,-0.37663 0.0122,-0.74833 0.16666,-0.38452 0.54329,-0.53339 l 4.59309,-1.815532 0.50835,1.286066 -4.13378,1.633976 0.3631,0.91862 3.21517,-1.27087 q 0.37663,-0.14888 0.75196,0.0214 0.38089,0.15747 0.52976,0.5341 z" /><path
         id="path6560"
         style="font-family:'Alien Encounters Solid';-inkscape-font-specification:'Alien Encounters Solid'"
         d="m 826.50733,104.53272 -1.40717,0.4639 -2.16488,-6.566798 1.40717,-0.463904 z" /><path
         id="path6562"
         style="font-family:'Alien Encounters Solid';-inkscape-font-specification:'Alien Encounters Solid'"
         d="m 834.32273,102.41041 -1.43564,0.36646 -0.85506,-3.349818 -0.77199,3.765128 -1.14851,0.29317 -2.48212,-2.9345 0.85507,3.34982 -1.43563,0.36645 -1.71014,-6.699623 1.43564,-0.366457 3.34261,3.98916 1.06,-5.112962 1.43563,-0.366457 z" /><path
         id="path6564"
         style="font-family:'Alien Encounters Solid';-inkscape-font-specification:'Alien Encounters Solid'"
         d="m 840.62564,100.45734 q 0.0612,0.40034 -0.18693,0.73805 -0.23987,0.32646 -0.64021,0.38767 l -3.90573,0.59715 q -0.40033,0.0612 -0.73656,-0.17717 -0.32795,-0.24964 -0.38916,-0.64997 l -0.89572,-5.858594 1.46465,-0.223932 0.83601,5.468016 2.92929,-0.44786 -0.83601,-5.468019 1.46465,-0.223931 z" /><path
         id="path6566"
         style="font-family:'Alien Encounters Solid';-inkscape-font-specification:'Alien Encounters Solid'"
         d="m 846.78872,101.01123 -4.4348,0.30092 q -0.40406,0.0274 -0.71911,-0.23832 -0.30586,-0.27626 -0.33327,-0.68032 l -0.40123,-5.913076 1.47827,-0.100306 0.37448,5.518867 3.94204,-0.267483 z" /><path
         id="path6568"
         style="font-family:'Alien Encounters Solid';-inkscape-font-specification:'Alien Encounters Solid'"
         d="m 854.49515,101.10165 -1.67899,-0.0278 -0.60594,-1.59069 -2.78515,-0.0461 -0.65825,1.56976 -1.67899,-0.0278 2.87984,-6.86772 1.87652,0.03106 z m -2.81512,-3.010334 -0.80467,-2.117575 -0.87432,2.089783 z" /><path
         id="path6570"
         style="font-family:'Alien Encounters Solid';-inkscape-font-specification:'Alien Encounters Solid'"
         d="m 859.62919,96.13585 -2.1134,-0.209208 -0.54491,5.504648 -1.47446,-0.14596 0.54491,-5.504647 -2.30998,-0.228669 0.13623,-1.376163 5.89784,0.583836 z" /><path
         id="path6572"
         style="font-family:'Alien Encounters Solid';-inkscape-font-specification:'Alien Encounters Solid'"
         d="m 861.13202,101.98343 -1.4649,-0.2223 1.03737,-6.836182 1.4649,0.222292 z" /><path
         id="path6574"
         style="font-family:'Alien Encounters Solid';-inkscape-font-specification:'Alien Encounters Solid'"
         d="m 867.73042,102.28365 q -0.0836,0.39626 -0.43474,0.62503 -0.33943,0.22114 -0.73569,0.13753 l -3.86598,-0.81576 q -0.39627,-0.0836 -0.62707,-0.42508 -0.21911,-0.34909 -0.13549,-0.74535 l 1.01969,-4.832482 q 0.0836,-0.396263 0.42304,-0.617404 0.35113,-0.228767 0.7474,-0.145153 l 3.86598,0.815756 q 0.39626,0.08361 0.61537,0.432706 0.2308,0.341466 0.14719,0.737729 z m -1.36816,-0.69251 0.85654,-4.059278 -2.89949,-0.611817 -0.85654,4.059285 z" /><path
         id="path6576"
         style="font-family:'Alien Encounters Solid';-inkscape-font-specification:'Alien Encounters Solid'"
         d="m 873.77434,105.12249 -1.41758,-0.43104 -1.62825,-4.831308 -1.20691,3.969228 -1.41759,-0.43104 2.01152,-6.615383 1.41759,0.43104 1.62825,4.831313 1.20691,-3.969233 1.41758,0.43104 z" /></g><path
       d="m 849.42823,1893.6457 c 0,0 -30.89765,-50.2592 -28.4717,-181.6844 l -44.81648,-42.3955 0.60268,-89.6389 -158.0798,-93.8746 v -89.6405 l 156.25903,-42.9958 -44.81125,-53.8987 1.23131,-64.2006 80.53975,57.5332 -0.60268,-27.8577 26.65616,1.8169 v 25.4389 h 11.50611 11.50344 v -25.4389 l 26.65359,-1.8169 -0.60268,27.8577 80.55807,-57.5332 1.23133,64.2006 -44.82438,53.8987 156.25917,42.9958 v 89.6405 l -158.07991,93.8746 0.60269,89.6389 -44.82696,42.3955 c 2.41014,131.4252 -28.46131,181.6844 -28.46131,181.6844 z"
       style="display:inline;opacity:0.996;mix-blend-mode:normal;fill:#b9b9b9;fill-opacity:1;stroke:#000000;stroke-width:6.54968;stroke-linecap:butt;stroke-linejoin:miter;stroke-miterlimit:4;stroke-dasharray:none;stroke-opacity:1"
       id="path1373-8-3-8-4-81"
       inkscape:connector-curvature="0" /><path
       inkscape:connector-curvature="0"
       style="display:inline;opacity:0.996;mix-blend-mode:normal;fill:#00205b;stroke-width:2.04761"
       id="path1379-3-6-3-3-3"
       d="m 1492.1533,813.86955 h -40.8029 v 22.90424 h 40.8265 c 6.712,-0.12891 12.1296,-5.13324 12.1296,-11.4074 0,-6.27495 -5.4386,-11.49603 -12.1532,-11.49603 m -40.8055,67.15365 h 40.1035 c 5.4858,-0.0806 10.1385,-4.30013 10.1385,-9.85075 0,-5.52806 -4.8728,-9.93777 -10.3795,-9.8717 h -39.8625 z m 63.8648,-32.03146 c 7.5424,5.30972 10.3952,14.10739 10.3952,23.78168 0,18.20931 -15.3334,32.79931 -34.1329,32.79931 h -68.0985 V 789.31922 h 70.7758 v 0 c 19.8737,0 36.415,15.33529 36.415,34.11586 0,12.24133 -7.3695,21.30327 -15.3546,25.6026 m 105.019,56.84445 v -65.3561 c 0,-19.98591 -11.6711,-28.36702 -26.0197,-28.36702 -14.3693,0 -25.9541,8.35855 -25.9541,28.34447 v 65.37865 h -28.9799 v -65.55269 c 0,-41.81372 24.5682,-53.99139 54.934,-53.99139 30.3842,0 54.9787,12.17606 54.9787,53.99139 v 65.55269 z m 101.6865,-45.3033 c -23.4522,5.08974 -31.3718,7.3498 -31.3718,14.7866 0,6.55938 8.4907,9.87251 21.8962,9.87251 12.6587,0 27.9476,-5.39753 36.9203,-10.77169 l 9.151,23.64953 c -13.6019,5.66019 -29.9675,11.07867 -51.5991,11.07867 -28.367,0 -46.074,-16.58497 -46.074,-36.85611 0,-20.29371 14.5894,-29.22191 43.5065,-35.34459 22.4202,-4.73844 28.4981,-7.5907 28.4981,-14.56744 0,-6.97674 -8.9964,-9.54296 -21.1495,-9.54296 -15.7318,0 -30.8688,5.24282 -45.1282,11.3639 l -8.6218,-23.05573 c 17.0469,-7.89848 34.7487,-14.2387 55.8563,-14.2387 35.1704,0 49.5163,16.80573 49.5163,36.39685 0,17.41969 -12.0666,30.84543 -41.4003,37.22916 m -545.238,45.03983 -58.7302,-116.23096 h 34.8822 l 8.7764,18.69275 h 40.0617 l -12.4624,25.47045 h -15.8181 l 14.8933,31.78894 37.5179,-75.95214 h 34.9687 l -61.0093,116.25271 z m 235.9657,-38.65691 c 0,21.17034 -14.524,38.34993 -44.3816,38.34993 h -60.3125 V 789.03882 h 27.9531 v 91.67821 h 34.2901 c 10.1334,0 14.3486,-6.27415 14.3486,-13.73352 0,-7.48112 -4.4327,-13.47005 -14.5711,-13.47005 h -23.9762 l 36.2838,-64.47704 h 28.6943 c 0,0 -24.8353,42.14325 -24.7017,42.16662 17.9244,5.57317 26.3732,19.1528 26.3732,35.71601 m -145.8953,-77.64092 h 28.9145 v 116.23095 h -28.9145 z" /><path
       inkscape:connector-curvature="0"
       id="path1377-5-0-7-0"
       style="display:inline;opacity:0.996;mix-blend-mode:normal;fill:#b9b9b9;fill-opacity:1;stroke:#000000;stroke-width:6.54968;stroke-linecap:butt;stroke-linejoin:miter;stroke-miterlimit:4;stroke-dasharray:none;stroke-opacity:1"
       d="m 1845.5454,2273.4926 c 0,0 -0.3932,-0.081 -0.3932,-0.2819 -1.7816,-1.4463 -9.5517,-8.5657 -9.7352,-22.0551 -0.3932,-15.2224 0,-75.6096 0,-75.6096 l -192.5429,-4.5072 c 0,0 -5.4544,-2.1022 -5.3496,-11.9166 l 198.1676,-12.4187 c 0,0 -0.3932,-16.7114 0.4455,-18.4107 l -14.7676,-0.2095 c 0,0 0.3932,6.9421 -3.7907,10.978 h -8.2943 c 0,0 -3.6337,-3.5412 -3.4372,-11.3309 0.3933,-7.7897 0.8645,-14.2339 0.8645,-14.2339 0,0 -2.6197,-0.7815 -2.5411,-3.1866 0.3932,-2.4083 0.3932,-3.256 0.3932,-3.256 l 2.921,-0.1288 0.3932,2.6919 c 0,0 0.3932,-3.824 2.0958,-4.533 v -1.2754 c 0,0 -5.5303,1.9127 -11.8597,1.4164 0,0 -6.5442,-1.344 -7.6392,-1.9829 -1.0742,-0.6365 -0.9432,-0.9886 -0.9432,-0.9886 0,0 5.3128,-4.7448 21.0315,-0.9242 0,0 2.0958,-3.8247 3.3979,-3.8949 1.3099,-0.081 3.3559,3.8949 3.3559,3.8949 0,0 9.68,-1.4865 13.7538,-1.0635 4.0711,0.427 6.5468,3.8956 6.5468,3.8956 0,0 -1.4932,1.8387 -8.0714,0.9878 -6.5521,-0.8484 -11.3568,-1.0643 -11.3568,-1.0643 0,0 0.6285,8.2852 2.4888,2.9054 0.3932,-0.4592 0.7863,-0.4673 1.4671,-0.3142 0.3931,0 -0.6027,-0.145 1.86,0.4351 0.3933,0.081 0.4722,2.4743 -1.0217,4.9406 -0.9956,1.6164 -3.28,1.7758 -1.0741,1.5552 4.9173,-0.4835 15.7055,0.725 15.9832,-0.3385 1.4932,-5.9301 2.646,-29.7424 6.1408,-39.3611 0.3931,-0.8807 0.7074,-4.6957 0.3931,-4.9745 -4.7706,-2.0087 -46.9463,-9.7339 -46.9044,-10.8192 0.3932,-3.1673 -0.3931,-10.1183 -0.3931,-12.1455 0.3931,-0.6364 24.6965,0.5801 44.2636,1.0797 0.6027,0.01 0.6809,6.0638 1.6242,8.1909 0.3933,0.266 1.2575,0.4593 1.7815,0.2176 0,0 0.3933,0 0.3933,0 l -0.3933,-13.6368 c 0.3933,1.6098 -0.4455,0.3706 0.9431,0.4351 1.3361,0 0.6809,1.1715 0.9432,-0.4351 l -0.3932,13.6368 c 0.3932,0 0.3932,0 0.3932,0 0.5237,0.2417 1.6242,0 1.7815,-0.2176 0.9431,-2.1271 0.9955,-8.174 1.6242,-8.1909 19.5619,-0.4915 44.1537,-1.7227 44.2611,-1.0797 0.3932,2.028 -0.3933,8.9782 -0.3933,12.1463 0.3933,1.0853 -42.1338,8.8106 -46.9018,10.8192 -0.6807,0.2739 -0.3931,4.0898 0.3932,4.9737 3.4739,9.6195 4.6134,33.431 6.1407,39.3611 0.3932,1.066 11.0711,-0.145 15.9886,0.3385 2.2529,0.2174 -0.3932,0 -1.0742,-1.5552 -1.5456,-2.4671 -1.3099,-4.8681 -1.0217,-4.9406 2.4365,-0.5962 1.729,-0.4109 1.8076,-0.4351 0.6809,-0.145 1.3099,-0.145 1.4671,0.3142 1.8862,5.3798 2.4888,-2.9046 2.4888,-2.9046 0,0 -4.802,0.2095 -11.3515,1.0635 -6.5493,0.8485 -8.0767,-0.9878 -8.0767,-0.9878 0,0 2.4888,-3.4702 6.5493,-3.8956 4.0738,-0.427 13.7566,1.0643 13.7566,1.0643 0,0 2.0434,-3.9666 3.3559,-3.8957 1.336,0.081 3.4371,3.8957 3.4371,3.8957 15.7134,-3.8239 21.0237,0.9234 21.0237,0.9234 0,0 0.3932,0.3545 -0.9955,0.9886 -1.0741,0.6366 -7.6393,1.9837 -7.6393,1.9837 -6.3346,0.4914 -11.865,-1.4172 -11.865,-1.4172 v 1.2762 c 1.8864,0.7091 2.1221,4.5322 2.1221,4.5322 l 0.3932,-2.6919 2.9236,0.1288 c 0,0 0.3932,0.8477 0.3932,3.256 0.3932,2.4075 -2.515,3.1874 -2.515,3.1874 0,0 0.6809,6.4434 0.8384,14.2331 0.3932,7.7897 -3.4346,11.3316 -3.4346,11.3316 h -8.2941 c -4.0031,-4.0366 -3.7935,-10.9779 -3.7935,-10.9779 l -14.7677,0.2095 c 0.6027,1.6976 0.4456,18.4108 0.4456,18.4108 l 198.1677,12.4185 c 0.3932,9.8146 -5.3522,11.9174 -5.3522,11.9174 l -192.543,4.5064 c 0,0 0.3932,60.3873 0,75.6098 -0.3933,13.4893 -7.9668,20.6087 -9.7272,22.0549 -0.3932,0.1934 -0.3932,0.2821 -0.3932,0.2821 z"
       sodipodi:nodetypes="cssccccccccscsccccccsccscscscsccssssssscsscccccsccssscsssccccscscsccsccccccscsccccccccscc" /><g
       style="font-size:8.66115px;line-height:0;letter-spacing:0.312092px;word-spacing:0px;fill:#1ce6a3;stroke-width:0.201435;stroke-linecap:round;stroke-linejoin:round"
       id="text12658"
       transform="matrix(9.9772713,-6.6671486,-6.6690984,-10.380024,-7651.9667,9779.0525)"
       aria-label="ACCELERATE DEVELOPMENT - ENHANCE TRAINING"><path
         id="path4109"
         style="font-family:'Alien Encounters Solid';-inkscape-font-specification:'Alien Encounters Solid'"
         d="m 952.50137,208.85996 -1.14995,-0.91954 0.43252,-1.42849 -1.90757,-1.52535 -1.29837,0.73613 -1.14996,-0.91953 5.68038,-3.22058 1.28524,1.02772 z m -0.33897,-3.59796 0.57715,-1.90059 -1.72711,0.98106 z" /><path
         id="path4111"
         style="font-family:'Alien Encounters Solid';-inkscape-font-specification:'Alien Encounters Solid'"
         d="m 956.90167,211.88285 -3.20848,-2.21276 q -0.29233,-0.2016 -0.36363,-0.55589 -0.0593,-0.3565 0.14236,-0.64883 l 2.45862,-3.56497 q 0.2016,-0.29233 0.55097,-0.3565 0.36142,-0.0664 0.65375,0.13522 l 3.20848,2.21276 -0.68842,0.99819 -2.85198,-1.96689 -2.06524,2.99458 2.85199,1.9669 z" /><path
         id="path4113"
         style="font-family:'Alien Encounters Solid';-inkscape-font-specification:'Alien Encounters Solid'"
         d="m 961.68968,214.78028 -3.34423,-2.00168 q -0.3047,-0.18238 -0.39865,-0.53134 -0.0821,-0.35195 0.1003,-0.65665 l 2.22409,-3.71581 q 0.18238,-0.3047 0.52689,-0.39122 0.3564,-0.0895 0.66109,0.0929 l 3.34424,2.00168 -0.62275,1.04043 -2.97265,-1.77927 -1.86824,3.12129 2.97266,1.77927 z" /><path
         id="path4115"
         style="font-family:'Alien Encounters Solid';-inkscape-font-specification:'Alien Encounters Solid'"
         d="m 966.65504,217.36209 -3.46667,-1.78125 q -0.31585,-0.16229 -0.43217,-0.50445 -0.10466,-0.34591 0.0576,-0.66176 l 1.97917,-3.85185 q 0.16229,-0.31585 0.50049,-0.42447 0.34986,-0.11236 0.66571,0.0499 l 3.46667,1.78125 -0.55416,1.07852 -3.08149,-1.58333 -0.39583,0.77037 3.08148,1.58333 -0.55416,1.07852 -3.08149,-1.58333 -0.7125,1.38666 3.08149,1.58334 z" /><path
         id="path4117"
         style="font-family:'Alien Encounters Solid';-inkscape-font-specification:'Alien Encounters Solid'"
         d="m 971.7775,219.61676 -3.5748,-1.55288 q -0.3257,-0.14149 -0.46395,-0.47539 -0.12685,-0.3384 0.0146,-0.6641 l 2.07051,-4.7664 1.1916,0.51763 -1.93248,4.44864 3.1776,1.38034 z" /><path
         id="path4119"
         style="font-family:'Alien Encounters Solid';-inkscape-font-specification:'Alien Encounters Solid'"
         d="m 977.0352,221.53469 -3.6679,-1.318 q -0.33419,-0.12008 -0.49378,-0.44432 -0.14851,-0.32947 -0.0284,-0.66366 l 1.46444,-4.07545 q 0.12009,-0.33418 0.4414,-0.48562 0.3324,-0.15666 0.66658,-0.0366 l 3.66791,1.318 -0.41005,1.14113 -3.26036,-1.17156 -0.29288,0.81509 3.26036,1.17156 -0.41005,1.14112 -3.26036,-1.17155 -0.5272,1.46716 3.26036,1.17155 z" /><path
         id="path4121"
         style="font-family:'Alien Encounters Solid';-inkscape-font-specification:'Alien Encounters Solid'"
         d="m 982.82386,223.22156 -1.24939,-0.35619 0.75987,-2.66537 -2.49879,-0.71237 -0.75986,2.66537 -1.2494,-0.35619 1.66221,-5.8305 4.16464,1.1873 q 0.3415,0.0974 0.51181,0.4161 0.18102,0.31278 0.0837,0.65428 l -0.2612,0.91622 q -0.0974,0.3415 -0.41848,0.52014 -0.31041,0.17269 -0.65191,0.0753 0.3415,0.0974 0.51181,0.4161 0.18102,0.31279 0.0837,0.65429 z m -0.15708,-4.18766 0.23746,-0.83292 -2.49879,-0.71238 -0.23746,0.83293 z" /><path
         id="path4123"
         style="font-family:'Alien Encounters Solid';-inkscape-font-specification:'Alien Encounters Solid'"
         d="m 989.73493,224.7092 -1.44074,-0.30367 -0.25659,-1.47031 -2.38993,-0.50374 -0.82821,1.24167 -1.44074,-0.30367 3.6234,-5.4323 1.61024,0.3394 z m -1.92184,-3.06051 -0.33989,-1.957 -1.10085,1.65333 z" /><path
         id="path4125"
         style="font-family:'Alien Encounters Solid';-inkscape-font-specification:'Alien Encounters Solid'"
         d="m 994.745,220.47648 -1.8434,-0.26356 -0.68649,4.80141 -1.28609,-0.18388 0.68648,-4.80141 -2.01488,-0.28808 0.17162,-1.20036 5.14438,0.73552 z" /><path
         id="path4127"
         style="font-family:'Alien Encounters Solid';-inkscape-font-specification:'Alien Encounters Solid'"
         d="m 999.63472,225.75181 -3.88524,-0.30906 q -0.35399,-0.0282 -0.59309,-0.29914 -0.22978,-0.27894 -0.20162,-0.63292 l 0.3434,-4.31694 q 0.0281,-0.35399 0.29845,-0.58446 0.27962,-0.23841 0.63361,-0.21025 l 3.88527,0.30905 -0.096,1.20875 -3.45352,-0.27472 -0.0687,0.86339 3.45355,0.27472 -0.0961,1.20874 -3.45355,-0.27472 -0.12363,1.5541 3.45355,0.27472 z" /><path
         id="path4129"
         style="font-family:'Alien Encounters Solid';-inkscape-font-specification:'Alien Encounters Solid'"
         d="m 1008.127,224.92115 q 0.01,0.35506 -0.2503,0.61889 -0.2472,0.25503 -0.6023,0.26053 l -4.33,0.0671 -0.094,-6.06207 4.3301,-0.0671 q 0.3551,-0.005 0.6102,0.25041 0.2637,0.24712 0.2692,0.60218 z m -1.3044,-0.32628 -0.056,-3.63725 -2.598,0.0403 0.056,3.63725 z" /><path
         id="path4131"
         style="font-family:'Alien Encounters Solid';-inkscape-font-specification:'Alien Encounters Solid'"
         d="m 1013.7202,225.34955 -3.8844,0.31894 q -0.3539,0.0291 -0.6334,-0.2 -0.2716,-0.23841 -0.3007,-0.59233 l -0.3544,-4.31605 q -0.029,-0.35391 0.2007,-0.6248 0.2377,-0.28023 0.5917,-0.30929 l 3.8844,-0.31894 0.099,1.20849 -3.4528,0.28351 0.071,0.86321 3.4528,-0.28351 0.099,1.20849 -3.4528,0.28351 0.1276,1.55378 3.4528,-0.28351 z" /><path
         id="path4133"
         style="font-family:'Alien Encounters Solid';-inkscape-font-specification:'Alien Encounters Solid'"
         d="m 1019.7912,218.3318 -1.4738,6.36132 -1.6265,0.25053 -3.3198,-5.62295 1.4552,-0.22415 2.4313,4.12108 1.0784,-4.66168 z" /><path
         id="path4135"
         style="font-family:'Alien Encounters Solid';-inkscape-font-specification:'Alien Encounters Solid'"
         d="m 1025.9173,223.12897 -3.8003,0.86512 q -0.3462,0.0788 -0.6553,-0.10841 -0.3026,-0.1976 -0.3814,-0.54385 l -0.9613,-4.22254 q -0.079,-0.34625 0.1104,-0.64691 0.1956,-0.31103 0.5419,-0.38985 l 3.8003,-0.86512 0.2691,1.18231 -3.378,0.769 0.1922,0.84451 3.3781,-0.769 0.2691,1.18231 -3.378,0.769 0.346,1.52012 3.3781,-0.769 z" /><path
         id="path4137"
         style="font-family:'Alien Encounters Solid';-inkscape-font-specification:'Alien Encounters Solid'"
         d="m 1031.2909,221.5649 -3.737,1.10719 q -0.3404,0.10088 -0.6609,-0.0661 -0.3147,-0.17777 -0.4155,-0.51825 l -1.4763,-4.9826 1.2457,-0.36906 1.3778,4.65042 3.3217,-0.98416 z" /><path
         id="path4139"
         style="font-family:'Alien Encounters Solid';-inkscape-font-specification:'Alien Encounters Solid'"
         d="m 1036.6558,218.69048 q 0.1234,0.33297 -0.03,0.66691 -0.1482,0.32281 -0.4812,0.44621 l -3.2485,1.20396 q -0.333,0.12341 -0.6639,-0.0218 -0.3258,-0.15636 -0.4492,-0.48933 l -1.505,-4.06067 q -0.1234,-0.33297 0.025,-0.65578 0.1533,-0.33393 0.4863,-0.45734 l 3.2485,-1.20396 q 0.333,-0.12341 0.6588,0.0329 0.3309,0.14522 0.4543,0.47819 z m -1.3386,0.12663 -1.2642,-3.41096 -2.4364,0.90297 1.2642,3.41096 z" /><path
         id="path4141"
         style="font-family:'Alien Encounters Solid';-inkscape-font-specification:'Alien Encounters Solid'"
         d="m 1040.9652,213.73085 q 0.1462,0.32359 0.016,0.66738 -0.1254,0.33233 -0.449,0.47859 l -2.7624,1.24853 1.1415,2.52558 -1.1838,0.53508 -2.4971,-5.52469 3.9462,-1.78362 q 0.3236,-0.14626 0.6595,-0.0129 0.3402,0.12186 0.4865,0.44545 z m -1.3266,0.21939 -0.3567,-0.78924 -2.3677,1.07017 0.3567,0.78924 z" /><path
         id="path4143"
         style="font-family:'Alien Encounters Solid';-inkscape-font-specification:'Alien Encounters Solid'"
         d="m 1048.9915,213.52781 -1.1387,0.62547 -1.4594,-2.65697 0.1689,3.36583 -0.9109,0.50038 -2.75,-1.9481 1.4594,2.65696 -1.1387,0.62547 -2.9188,-5.31393 1.1387,-0.62547 3.7114,2.65517 -0.2194,-4.57328 1.1387,-0.62547 z" /><path
         id="path4145"
         style="font-family:'Alien Encounters Solid';-inkscape-font-specification:'Alien Encounters Solid'"
         d="m 1053.6801,210.46816 -3.2651,2.12837 q -0.2974,0.19392 -0.6523,0.1254 -0.3523,-0.0805 -0.5462,-0.378 l -2.3649,-3.62785 q -0.1939,-0.29749 -0.1206,-0.64507 0.076,-0.35956 0.3732,-0.55348 l 3.2651,-2.12837 0.6622,1.0158 -2.9023,1.89189 0.473,0.72557 2.9022,-1.89188 0.6622,1.0158 -2.9023,1.89188 0.8514,1.30603 2.9023,-1.89189 z" /><path
         id="path4147"
         style="font-family:'Alien Encounters Solid';-inkscape-font-specification:'Alien Encounters Solid'"
         d="m 1058.5195,206.87149 -1.0382,0.78105 -4.2633,-1.34479 2.187,2.90689 -1.0382,0.78105 -3.6449,-4.84482 1.0382,-0.78105 4.2633,1.34479 -2.187,-2.90689 1.0382,-0.78105 z" /><path
         id="path4149"
         style="font-family:'Alien Encounters Solid';-inkscape-font-specification:'Alien Encounters Solid'"
         d="m 1059.9148,199.27808 -1.4066,1.22025 3.1783,3.66376 -0.9813,0.85134 -3.1783,-3.66376 -1.5375,1.33376 -0.7946,-0.91594 3.9255,-3.40535 z" /><path
         id="path4151"
         style="font-family:'Alien Encounters Solid';-inkscape-font-specification:'Alien Encounters Solid'"
         d="m 1065.8696,196.81217 -1.8353,1.89628 -0.55,-0.53234 1.8352,-1.89628 z" /><path
         id="path4153"
         style="font-family:'Alien Encounters Solid';-inkscape-font-specification:'Alien Encounters Solid'"
         d="m 1073.0809,192.04078 -2.4669,3.01747 q -0.2247,0.27492 -0.5837,0.31711 -0.3601,0.03 -0.635,-0.19476 l -3.3528,-2.74099 q -0.2749,-0.22476 -0.3104,-0.57819 -0.037,-0.36563 0.1881,-0.64055 l 2.4669,-3.01747 0.9387,0.76748 -2.1927,2.68219 0.6705,0.5482 2.1928,-2.6822 0.9388,0.76748 -2.1928,2.68219 1.207,0.98676 2.1927,-2.68219 z" /><path
         id="path4155"
         style="font-family:'Alien Encounters Solid';-inkscape-font-specification:'Alien Encounters Solid'"
         d="m 1076.6087,187.151 -0.754,1.05801 -4.4704,0.005 2.9625,2.1111 -0.754,1.05801 -4.9374,-3.5185 0.754,-1.05801 4.4703,-0.005 -2.9624,-2.1111 0.754,-1.05801 z" /><path
         id="path4157"
         style="font-family:'Alien Encounters Solid';-inkscape-font-specification:'Alien Encounters Solid'"
         d="m 1079.7845,182.02542 -0.6789,1.10768 -2.3631,-1.44832 -1.3578,2.21535 2.3631,1.44832 -0.6789,1.10767 -5.1692,-3.1682 0.6789,-1.10767 1.7723,1.08624 1.3578,-2.21535 -1.7723,-1.08624 0.6789,-1.10768 z" /><path
         id="path4159"
         style="font-family:'Alien Encounters Solid';-inkscape-font-specification:'Alien Encounters Solid'"
         d="m 1083.0621,175.76201 -0.6742,1.30895 -1.4858,-0.14181 -1.1184,2.17131 0.9781,1.12737 -0.6743,1.30894 -4.2792,-4.93222 0.7535,-1.46294 z m -3.46,1.04306 -1.9772,-0.19032 1.3029,1.49927 z" /><path
         id="path4161"
         style="font-family:'Alien Encounters Solid';-inkscape-font-specification:'Alien Encounters Solid'"
         d="m 1085.3141,170.44773 -0.5075,1.19597 -4.3636,0.97105 3.3487,1.42088 -0.5075,1.19597 -5.5811,-2.36813 0.5074,-1.19597 4.3636,-0.97105 -3.3487,-1.42088 0.5075,-1.19597 z" /><path
         id="path4163"
         style="font-family:'Alien Encounters Solid';-inkscape-font-specification:'Alien Encounters Solid'"
         d="m 1087.1683,165.16668 -1.2775,3.6822 q -0.1164,0.33549 -0.4389,0.49864 -0.3278,0.15213 -0.6633,0.0357 l -4.0913,-1.41945 q -0.3355,-0.11639 -0.4905,-0.43602 -0.1603,-0.33065 -0.044,-0.66614 l 1.2775,-3.6822 1.1456,0.39744 -1.1356,3.27308 3.4368,1.19233 1.1355,-3.27307 z" /><path
         id="path4165"
         style="font-family:'Alien Encounters Solid';-inkscape-font-specification:'Alien Encounters Solid'"
         d="m 1088.6827,159.77894 -1.0367,3.75712 q -0.094,0.34231 -0.4056,0.52598 -0.3173,0.17301 -0.6596,0.0786 l -4.1746,-1.15188 q -0.3423,-0.0944 -0.5176,-0.40338 -0.1814,-0.31959 -0.087,-0.66191 l 1.0367,-3.75711 1.1689,0.32253 -0.9215,3.33965 0.8349,0.23038 0.9215,-3.33966 1.1689,0.32253 -0.9215,3.33966 1.5029,0.41467 0.9215,-3.33966 z" /><path
         id="path4167"
         style="font-family:'Alien Encounters Solid';-inkscape-font-specification:'Alien Encounters Solid'"
         d="m 1085.5406,150.5937 -0.3218,1.83414 4.7773,0.83809 -0.2245,1.27963 -4.7773,-0.83809 -0.3517,2.00475 -1.1943,-0.20952 0.898,-5.11852 z" /><path
         id="path4169"
         style="font-family:'Alien Encounters Solid';-inkscape-font-specification:'Alien Encounters Solid'"
         d="m 1090.9749,145.43774 -0.1355,1.2921 -2.7564,-0.28888 -0.2709,2.5842 2.7565,0.28887 -0.1354,1.2921 -6.0298,-0.63192 0.4514,-4.30699 q 0.037,-0.35317 0.3216,-0.57589 0.2769,-0.23224 0.6301,-0.19523 l 0.9475,0.0993 q 0.3532,0.037 0.5845,0.32251 0.2236,0.27599 0.1866,0.62916 0.037,-0.35317 0.3216,-0.57589 0.2769,-0.23224 0.6301,-0.19523 z m -4.0979,0.87684 -0.8614,-0.0903 -0.2708,2.58419 0.8614,0.0903 z" /><path
         id="path4171"
         style="font-family:'Alien Encounters Solid';-inkscape-font-specification:'Alien Encounters Solid'"
         d="m 1091.238,138.37346 -0.045,1.4717 -1.4022,0.51124 -0.075,2.44128 1.368,0.59685 -0.045,1.4717 -5.9851,-2.61122 0.051,-1.64483 z m -2.6747,2.43029 -1.8667,0.67887 1.8212,0.79282 z" /><path
         id="path4173"
         style="font-family:'Alien Encounters Solid';-inkscape-font-specification:'Alien Encounters Solid'"
         d="m 1091.1484,136.50149 0.026,1.29891 -6.0616,0.12266 -0.026,-1.2989 z" /><path
         id="path4175"
         style="font-family:'Alien Encounters Solid';-inkscape-font-specification:'Alien Encounters Solid'"
         d="m 1090.8104,130.48293 0.087,1.29627 -3.456,2.83559 3.6296,-0.24305 0.087,1.29627 -6.0493,0.40508 -0.087,-1.29627 3.456,-2.83559 -3.6296,0.24305 -0.087,-1.29627 z" /><path
         id="path4177"
         style="font-family:'Alien Encounters Solid';-inkscape-font-specification:'Alien Encounters Solid'"
         d="m 1090.5429,128.36733 0.1472,1.29081 -6.0238,0.68662 -0.1472,-1.29082 z" /><path
         id="path4179"
         style="font-family:'Alien Encounters Solid';-inkscape-font-specification:'Alien Encounters Solid'"
         d="m 1089.6459,122.40641 0.2071,1.28255 -3.1768,3.14518 3.5912,-0.58008 0.2072,1.28254 -5.9853,0.96682 -0.2071,-1.28255 3.1767,-3.14518 -3.5911,0.58008 -0.2072,-1.28254 z" /><path
         id="path4181"
         style="font-family:'Alien Encounters Solid';-inkscape-font-specification:'Alien Encounters Solid'"
         d="m 1088.3041,116.52765 0.9838,4.21734 q 0.081,0.34582 -0.1049,0.65593 -0.196,0.30363 -0.5418,0.3843 l -4.2173,0.98383 q -0.3459,0.0807 -0.6475,-0.10687 -0.3121,-0.19401 -0.3928,-0.53983 l -0.9838,-4.21734 1.1809,-0.27547 0.8854,3.79561 3.5426,-0.82642 -0.5903,-2.53041 -1.5183,0.35418 0.3936,1.68694 -1.1809,0.27547 -0.6887,-2.95214 z" /></g></g></svg>
